<?xml version="1.0" encoding="UTF-8" standalone="no"?>
<svg
   xmlns:dc="http://purl.org/dc/elements/1.1/"
   xmlns:cc="http://creativecommons.org/ns#"
   xmlns:rdf="http://www.w3.org/1999/02/22-rdf-syntax-ns#"
   xmlns:svg="http://www.w3.org/2000/svg"
   xmlns="http://www.w3.org/2000/svg"
   xmlns:sodipodi="http://sodipodi.sourceforge.net/DTD/sodipodi-0.dtd"
   xmlns:inkscape="http://www.inkscape.org/namespaces/inkscape"
   sodipodi:docname="drawing.svg"
   inkscape:version="1.1-dev (9ebb77e, 2020-04-08)"
   id="svg6"
   version="1.1"
   viewBox="0 0 297 210"
   height="210mm"
   width="297mm">
  <metadata
     id="metadata64">
    <rdf:RDF>
      <cc:Work
         rdf:about="">
        <dc:format>image/svg+xml</dc:format>
        <dc:type
           rdf:resource="http://purl.org/dc/dcmitype/StillImage" />
      </cc:Work>
    </rdf:RDF>
  </metadata>
  <defs
     id="defs2">
    <marker
       style="overflow:visible"
       id="marker994"
       refX="0.0"
       refY="0.0"
       orient="auto"
       inkscape:stockid="DotL"
       inkscape:isstock="true">
      <path
         transform="scale(0.8) translate(7.4, 1)"
         style="fill-rule:evenodd;fill:context-stroke;stroke:#000000;stroke-width:1pt;stroke-opacity:1"
         d="M -2.5,-1.0 C -2.5,1.7600000 -4.7400000,4.0 -7.5,4.0 C -10.260000,4.0 -12.5,1.7600000 -12.5,-1.0 C -12.5,-3.7600000 -10.260000,-6.0 -7.5,-6.0 C -4.7400000,-6.0 -2.5,-3.7600000 -2.5,-1.0 z "
         id="path992" />
    </marker>
    <marker
       inkscape:isstock="true"
       inkscape:stockid="Arrow1Mend"
       orient="auto"
       refY="0.0"
       refX="0.0"
       id="Arrow1Mend"
       style="overflow:visible;">
      <path
         id="path977"
         d="M 0.0,0.0 L 5.0,-5.0 L -12.5,0.0 L 5.0,5.0 L 0.0,0.0 z "
         style="fill-rule:evenodd;fill:#e4e4e4;stroke:#000edd;stroke-width:1pt;stroke-opacity:1;fill-opacity:0.356"
         transform="scale(0.4) rotate(180) translate(10,0)" />
    </marker>
    <marker
       inkscape:isstock="true"
       inkscape:stockid="Arrow1Mstart"
       orient="auto"
       refY="0.0"
       refX="0.0"
       id="Arrow1Mstart"
       style="overflow:visible">
      <path
         id="path974"
         d="M 0.0,0.0 L 5.0,-5.0 L -12.5,0.0 L 5.0,5.0 L 0.0,0.0 z "
         style="fill-rule:evenodd;fill:#e4e4e4;stroke:#000edd;stroke-width:1pt;stroke-opacity:1;fill-opacity:0.356"
         transform="scale(0.4) translate(10,0)" />
    </marker>
    <marker
       inkscape:isstock="true"
       inkscape:stockid="DotM"
       orient="auto"
       refY="0.0"
       refX="0.0"
       id="DotM"
       style="overflow:visible">
      <path
         id="path1032"
         d="M -2.5,-1.0 C -2.5,1.7600000 -4.7400000,4.0 -7.5,4.0 C -10.260000,4.0 -12.5,1.7600000 -12.5,-1.0 C -12.5,-3.7600000 -10.260000,-6.0 -7.5,-6.0 C -4.7400000,-6.0 -2.5,-3.7600000 -2.5,-1.0 z "
         style="fill-rule:evenodd;fill:context-stroke;stroke:#000000;stroke-width:1pt;stroke-opacity:1"
         transform="scale(0.4) translate(7.4, 1)" />
    </marker>
    <marker
       inkscape:isstock="true"
       inkscape:stockid="Arrow1Sstart"
       orient="auto"
       refY="0.0"
       refX="0.0"
       id="Arrow1Sstart"
       style="overflow:visible">
      <path
         id="path980"
         d="M 0.0,0.0 L 5.0,-5.0 L -12.5,0.0 L 5.0,5.0 L 0.0,0.0 z "
         style="fill-rule:evenodd;fill:context-stroke;stroke:context-stroke;stroke-width:1.0pt"
         transform="scale(0.2) translate(6,0)" />
    </marker>
    <marker
       inkscape:isstock="true"
       inkscape:stockid="Arrow1Lstart"
       orient="auto"
       refY="0.0"
       refX="0.0"
       id="Arrow1Lstart"
       style="overflow:visible">
      <path
         id="path968"
         d="M 0.0,0.0 L 5.0,-5.0 L -12.5,0.0 L 5.0,5.0 L 0.0,0.0 z "
         style="fill-rule:evenodd;fill:context-stroke;stroke:#000000;stroke-width:1pt;stroke-opacity:1"
         transform="scale(0.8) translate(12.5,0)" />
    </marker>
    <marker
       inkscape:isstock="true"
       inkscape:stockid="Arrow1Lend"
       orient="auto"
       refY="0.0"
       refX="0.0"
       id="Arrow1Lend"
       style="overflow:visible;">
      <path
         id="path971"
         d="M 0.0,0.0 L 5.0,-5.0 L -12.5,0.0 L 5.0,5.0 L 0.0,0.0 z "
         style="fill-rule:evenodd;fill:context-stroke;stroke:#000000;stroke-width:1pt;stroke-opacity:1"
         transform="scale(0.8) rotate(180) translate(12.5,0)" />
    </marker>
    <marker
       inkscape:collect="always"
       inkscape:isstock="true"
       inkscape:stockid="DotL"
       orient="auto"
       refY="0.0"
       refX="0.0"
       id="DotL"
       style="overflow:visible">
      <path
         id="path1029"
         d="M -2.5,-1.0 C -2.5,1.7600000 -4.7400000,4.0 -7.5,4.0 C -10.260000,4.0 -12.5,1.7600000 -12.5,-1.0 C -12.5,-3.7600000 -10.260000,-6.0 -7.5,-6.0 C -4.7400000,-6.0 -2.5,-3.7600000 -2.5,-1.0 z "
         style="fill-rule:evenodd;fill:context-stroke;stroke:#000000;stroke-width:1pt;stroke-opacity:1"
         transform="scale(0.8) translate(7.4, 1)" />
    </marker>
    <marker
       inkscape:isstock="true"
       inkscape:stockid="DotL"
       orient="auto"
       refY="0"
       refX="0"
       id="DotL-7"
       style="overflow:visible">
      <path
         id="path1029-0"
         d="m -2.5,-1 c 0,2.76 -2.24,5 -5,5 -2.76,0 -5,-2.24 -5,-5 0,-2.76 2.24,-5 5,-5 2.76,0 5,2.24 5,5 z"
         style="fill:context-stroke;fill-rule:evenodd;stroke:#000000;stroke-width:1pt;stroke-opacity:1"
         transform="matrix(0.8,0,0,0.8,5.92,0.8)" />
    </marker>
    <marker
       inkscape:isstock="true"
       inkscape:stockid="DotL"
       orient="auto"
       refY="0"
       refX="0"
       id="marker1246"
       style="overflow:visible">
      <path
         id="path1244"
         d="m -2.5,-1 c 0,2.76 -2.24,5 -5,5 -2.76,0 -5,-2.24 -5,-5 0,-2.76 2.24,-5 5,-5 2.76,0 5,2.24 5,5 z"
         style="fill:context-stroke;fill-rule:evenodd;stroke:context-stroke;stroke-width:1pt"
         transform="matrix(0.8,0,0,0.8,5.92,0.8)" />
    </marker>
    <marker
       inkscape:isstock="true"
       inkscape:stockid="DotL"
       orient="auto"
       refY="0"
       refX="0"
       id="marker1250"
       style="overflow:visible">
      <path
         id="path1248"
         d="m -2.5,-1 c 0,2.76 -2.24,5 -5,5 -2.76,0 -5,-2.24 -5,-5 0,-2.76 2.24,-5 5,-5 2.76,0 5,2.24 5,5 z"
         style="fill:context-stroke;fill-rule:evenodd;stroke:context-stroke;stroke-width:1pt"
         transform="matrix(0.8,0,0,0.8,5.92,0.8)" />
    </marker>
    <marker
       inkscape:isstock="true"
       inkscape:stockid="Arrow1Mstart"
       orient="auto"
       refY="0"
       refX="0"
       id="Arrow1Mstart-9"
       style="overflow:visible">
      <path
         id="path974-2"
         d="M 0,0 5,-5 -12.5,0 5,5 Z"
         style="fill:#e4e4e4;fill-rule:evenodd;stroke:#000edd;stroke-width:1pt;stroke-opacity:1;fill-opacity:0.356"
         transform="matrix(0.4,0,0,0.4,4,0)" />
    </marker>
    <marker
       inkscape:isstock="true"
       inkscape:stockid="Arrow1Mend"
       orient="auto"
       refY="0"
       refX="0"
       id="Arrow1Mend-4"
       style="overflow:visible">
      <path
         id="path977-7"
         d="M 0,0 5,-5 -12.5,0 5,5 Z"
         style="fill:#e4e4e4;fill-rule:evenodd;stroke:#000edd;stroke-width:1pt;stroke-opacity:1;fill-opacity:0.356"
         transform="matrix(-0.4,0,0,-0.4,-4,0)" />
    </marker>
    <marker
       style="overflow:visible"
       id="Arrow1Lstart-1"
       refX="0"
       refY="0"
       orient="auto"
       inkscape:stockid="Arrow1Lstart"
       inkscape:isstock="true">
      <path
         transform="matrix(0.8,0,0,0.8,10,0)"
         style="fill:context-stroke;fill-rule:evenodd;stroke:#000000;stroke-width:1pt;stroke-opacity:1"
         d="M 0,0 5,-5 -12.5,0 5,5 Z"
         id="path968-2" />
    </marker>
    <marker
       style="overflow:visible"
       id="DotM-3"
       refX="0"
       refY="0"
       orient="auto"
       inkscape:stockid="DotM"
       inkscape:isstock="true">
      <path
         transform="matrix(0.4,0,0,0.4,2.96,0.4)"
         style="fill:context-stroke;fill-rule:evenodd;stroke:#000000;stroke-width:1pt;stroke-opacity:1"
         d="m -2.5,-1 c 0,2.76 -2.24,5 -5,5 -2.76,0 -5,-2.24 -5,-5 0,-2.76 2.24,-5 5,-5 2.76,0 5,2.24 5,5 z"
         id="path1032-9" />
    </marker>
    <marker
       style="overflow:visible"
       id="Arrow1Lend-4"
       refX="0"
       refY="0"
       orient="auto"
       inkscape:stockid="Arrow1Lend"
       inkscape:isstock="true">
      <path
         transform="matrix(-0.8,0,0,-0.8,-10,0)"
         style="fill:context-stroke;fill-rule:evenodd;stroke:#000000;stroke-width:1pt;stroke-opacity:1"
         d="M 0,0 5,-5 -12.5,0 5,5 Z"
         id="path971-8" />
    </marker>
    <marker
       style="overflow:visible"
       id="Arrow1Mstart-4"
       refX="0"
       refY="0"
       orient="auto"
       inkscape:stockid="Arrow1Mstart"
       inkscape:isstock="true">
      <path
         transform="matrix(0.4,0,0,0.4,4,0)"
         style="fill:#e4e4e4;fill-opacity:0.356;fill-rule:evenodd;stroke:#000edd;stroke-width:1pt;stroke-opacity:1"
         d="M 0,0 5,-5 -12.5,0 5,5 Z"
         id="path974-5" />
    </marker>
    <marker
       style="overflow:visible"
       id="Arrow1Mend-48"
       refX="0"
       refY="0"
       orient="auto"
       inkscape:stockid="Arrow1Mend"
       inkscape:isstock="true">
      <path
         transform="matrix(-0.4,0,0,-0.4,-4,0)"
         style="fill:#e4e4e4;fill-opacity:0.356;fill-rule:evenodd;stroke:#000edd;stroke-width:1pt;stroke-opacity:1"
         d="M 0,0 5,-5 -12.5,0 5,5 Z"
         id="path977-0" />
    </marker>
    <marker
       style="overflow:visible"
       id="Arrow1Mstart-9-3"
       refX="0"
       refY="0"
       orient="auto"
       inkscape:stockid="Arrow1Mstart"
       inkscape:isstock="true">
      <path
         transform="matrix(0.4,0,0,0.4,4,0)"
         style="fill:#e4e4e4;fill-opacity:0.356;fill-rule:evenodd;stroke:#000edd;stroke-width:1pt;stroke-opacity:1"
         d="M 0,0 5,-5 -12.5,0 5,5 Z"
         id="path974-2-4" />
    </marker>
    <marker
       style="overflow:visible"
       id="Arrow1Mend-4-6"
       refX="0"
       refY="0"
       orient="auto"
       inkscape:stockid="Arrow1Mend"
       inkscape:isstock="true">
      <path
         transform="matrix(-0.4,0,0,-0.4,-4,0)"
         style="fill:#e4e4e4;fill-opacity:0.356;fill-rule:evenodd;stroke:#000edd;stroke-width:1pt;stroke-opacity:1"
         d="M 0,0 5,-5 -12.5,0 5,5 Z"
         id="path977-7-7" />
    </marker>
  </defs>
  <sodipodi:namedview
     inkscape:window-maximized="1"
     inkscape:window-y="-8"
     inkscape:window-x="1691"
     inkscape:window-height="877"
     inkscape:window-width="1501"
     showgrid="false"
     inkscape:current-layer="layer1"
     inkscape:document-units="mm"
     inkscape:cy="268.07958"
     inkscape:cx="221.14081"
     inkscape:zoom="0.97274914"
     inkscape:pageshadow="2"
     inkscape:pageopacity="0.0"
     borderopacity="1.0"
     bordercolor="#666666"
     pagecolor="#ffffff"
     id="base" />
  <g
     id="layer1"
     inkscape:groupmode="layer"
     inkscape:label="Layer 1">
    <path
       id="path71"
       d="m 65.108911,129.53852 63.937659,9.37752 52.57096,7.53044 37.36801,5.54126 22.73339,3.12584 7.24627,1.13667"
       style="fill:none;fill-rule:evenodd;stroke:#000000;stroke-width:0.265;stroke-linecap:butt;stroke-linejoin:miter;stroke-miterlimit:4;stroke-dasharray:none;stroke-opacity:1;marker-start:url(#DotL);marker-mid:url(#DotL);marker-end:url(#DotL)" />
    <path
       id="path71-6"
       d="m 66.153251,189.36292 63.602539,-11.43152 52.23822,-9.56989 37.19142,-6.62361 22.54799,-4.26213 7.23178,-1.22552"
       style="fill:none;fill-rule:evenodd;stroke:#000000;stroke-width:0.265;stroke-linecap:butt;stroke-linejoin:miter;stroke-miterlimit:4;stroke-dasharray:none;stroke-opacity:1;marker-start:url(#DotL-7);marker-mid:url(#DotL-7);marker-end:url(#DotL-7)" />
    <circle
       r="17.185259"
       cy="158.01204"
       cx="140.99728"
       id="path1315"
       style="opacity:0.451;fill:#e4e4e4;fill-opacity:0.356;stroke:#ff5d00;stroke-width:0.655;stroke-miterlimit:4;stroke-dasharray:none" />
    <path
       sodipodi:nodetypes="cc"
       id="path1510"
       d="M 248.9652,156.25025 45.652821,158.71532"
       style="fill:none;fill-rule:evenodd;stroke:#000000;stroke-width:0.265;stroke-linecap:butt;stroke-linejoin:miter;stroke-miterlimit:4;stroke-dasharray:1.59,1.59;stroke-dashoffset:0;stroke-opacity:1;font-variation-settings:normal;opacity:1;vector-effect:none;fill-opacity:1;stop-color:#000000;stop-opacity:1" />
    <path
       sodipodi:nodetypes="ccc"
       id="path1658"
       d="m 143.49244,141.9099 -2.56107,15.64779 3.20045,16.46016"
       style="fill:none;fill-rule:evenodd;stroke:#000000;stroke-width:0.264583px;stroke-linecap:butt;stroke-linejoin:miter;stroke-opacity:1;marker-start:url(#Arrow1Lstart);marker-mid:url(#DotM);marker-end:url(#Arrow1Lend)" />
    <text
       id="text3706"
       y="142.84131"
       x="179.979"
       style="font-style:normal;font-weight:normal;font-size:5.64444px;line-height:125%;font-family:Sans;letter-spacing:0px;word-spacing:0px;fill:#000000;fill-opacity:1;stroke:none;stroke-width:0.264583px;stroke-linecap:butt;stroke-linejoin:miter;stroke-opacity:1"
       xml:space="preserve"><tspan
         y="142.84131"
         x="179.979"
         style="font-style:italic;font-variant:normal;font-weight:normal;font-stretch:normal;font-size:5.64444px;font-family:Sans;-inkscape-font-specification:'Sans Italic';stroke-width:0.264583px"
         id="tspan3704"
         sodipodi:role="line">p1</tspan></text>
    <text
       id="text3706-1"
       y="135.18974"
       x="127.66685"
       style="font-style:normal;font-weight:normal;font-size:5.64444px;line-height:125%;font-family:Sans;letter-spacing:0px;word-spacing:0px;fill:#000000;fill-opacity:1;stroke:none;stroke-width:0.264583px;stroke-linecap:butt;stroke-linejoin:miter;stroke-opacity:1"
       xml:space="preserve"><tspan
         y="135.18974"
         x="127.66685"
         style="font-style:italic;font-variant:normal;font-weight:normal;font-stretch:normal;font-size:5.64444px;font-family:Sans;-inkscape-font-specification:'Sans Italic';stroke-width:0.264583px"
         id="tspan3704-3"
         sodipodi:role="line">p2</tspan></text>
    <text
       id="text3706-1-7"
       y="162.65343"
       x="132.99817"
       style="font-style:normal;font-weight:normal;font-size:5.64444px;line-height:125%;font-family:Sans;letter-spacing:0px;word-spacing:0px;fill:#000000;fill-opacity:1;stroke:none;stroke-width:0.264583px;stroke-linecap:butt;stroke-linejoin:miter;stroke-opacity:1"
       xml:space="preserve"><tspan
         y="162.65343"
         x="132.99817"
         style="font-style:italic;font-variant:normal;font-weight:normal;font-stretch:normal;font-size:5.64444px;font-family:Sans;-inkscape-font-specification:'Sans Italic';stroke-width:0.264583px"
         id="tspan3704-3-2"
         sodipodi:role="line">xc</tspan></text>
    <path
       id="path10943"
       d="m 129.04155,138.82259 11.88982,18.7351 40.35371,-11.40091"
       style="fill:none;fill-rule:evenodd;stroke:#dd0015;stroke-width:0.264583px;stroke-linecap:butt;stroke-linejoin:miter;stroke-opacity:1" />
    <circle
       sodipodi:open="true"
       d="m 169.25417,150.06883 a 11.654327,11.654327 0 0 1 -0.22933,6.87855"
       sodipodi:arc-type="arc"
       sodipodi:end="0.33306681"
       sodipodi:start="6.016773"
       sodipodi:ry="11.654327"
       sodipodi:rx="11.654327"
       sodipodi:cy="153.13708"
       sodipodi:cx="158.01099"
       sodipodi:type="arc"
       id="path11798"
       style="opacity:0.451;fill:#e4e4e4;fill-opacity:0.356;stroke:#000edd;stroke-width:0.265;stroke-miterlimit:4;stroke-dasharray:none;stroke-dashoffset:0;stroke-opacity:1;marker-start:url(#Arrow1Mstart);marker-end:url(#Arrow1Mend)" />
    <text
       id="text13602"
       y="154.44794"
       x="170.43585"
       style="font-style:normal;font-weight:normal;font-size:5.46117px;line-height:125%;font-family:Sans;letter-spacing:0px;word-spacing:0px;fill:#000000;fill-opacity:1;stroke:none;stroke-width:0.13653px;stroke-linecap:butt;stroke-linejoin:miter;stroke-opacity:1"
       xml:space="preserve"><tspan
         y="154.44794"
         x="170.43585"
         style="font-style:italic;font-variant:normal;font-weight:normal;font-stretch:normal;font-family:Symbol;-inkscape-font-specification:Symbol;stroke-width:0.13653px"
         id="tspan13600"
         sodipodi:role="line">a</tspan></text>
    <circle
       transform="rotate(173.35224)"
       d="m -143.39076,-168.66572 a 11.654327,11.654327 0 0 1 -0.22933,6.87856"
       sodipodi:open="true"
       sodipodi:arc-type="arc"
       sodipodi:end="0.33306681"
       sodipodi:start="6.016773"
       sodipodi:ry="11.654327"
       sodipodi:rx="11.654327"
       sodipodi:cy="-165.59746"
       sodipodi:cx="-154.63394"
       sodipodi:type="arc"
       id="path11798-1"
       style="opacity:0.451;fill:#e4e4e4;fill-opacity:0.356;stroke:#000edd;stroke-width:0.265;stroke-miterlimit:4;stroke-dasharray:none;stroke-dashoffset:0;stroke-opacity:1;marker-start:url(#Arrow1Mstart-9);marker-end:url(#Arrow1Mend-4)" />
    <text
       id="text13602-6"
       y="148.56534"
       x="157.61874"
       style="font-style:normal;font-weight:normal;font-size:4.3929px;line-height:125%;font-family:Sans;letter-spacing:0px;word-spacing:0px;fill:#000000;fill-opacity:1;stroke:none;stroke-width:0.109823px;stroke-linecap:butt;stroke-linejoin:miter;stroke-opacity:1"
       xml:space="preserve"><tspan
         y="148.56534"
         x="157.61874"
         style="font-style:italic;font-variant:normal;font-weight:normal;font-stretch:normal;font-family:Symbol;-inkscape-font-specification:Symbol;stroke-width:0.109823px"
         id="tspan13600-9"
         sodipodi:role="line">b</tspan></text>
    <text
       id="text2558"
       y="90.01963"
       x="93.736961"
       style="font-style:normal;font-weight:normal;font-size:10.5833px;line-height:125%;font-family:Sans;letter-spacing:0px;word-spacing:0px;fill:#000000;fill-opacity:1;stroke:none;stroke-width:0.264583px;stroke-linecap:butt;stroke-linejoin:miter;stroke-opacity:1"
       xml:space="preserve"><tspan
         y="90.01963"
         x="93.736961"
         style="stroke-width:0.264583px"
         id="tspan2556"
         sodipodi:role="line" /></text>
    <g
       style="font-size:5.64444px;line-height:125%;font-family:Sans;letter-spacing:0px;word-spacing:0px;fill:#9cdb9e;fill-opacity:1;stroke:#39b168;stroke-width:0.265;stroke-miterlimit:4;stroke-dasharray:none;stroke-opacity:1"
       id="text3706-1-5"
       transform="rotate(57.336294,-37.422883,56.789091)"
       aria-label="dc2">
      <path
         id="path9272"
         style="font-style:italic;-inkscape-font-specification:'Sans Italic';fill:#9cdb9e;fill-opacity:1;stroke:#39b168;stroke-width:0.265;stroke-miterlimit:4;stroke-dasharray:none;stroke-opacity:1"
         d="m 130.85764,-43.836349 -0.99219,4.288452 h -0.51814 l 0.0744,-0.322461 q -0.35002,0.239778 -0.565,0.322461 -0.21222,0.08544 -0.46302,0.08544 -0.43546,0 -0.69177,-0.275607 -0.25356,-0.275608 -0.25356,-0.802018 0,-0.443728 0.1378,-0.837847 0.13781,-0.396874 0.37483,-0.69453 0.23426,-0.2949 0.55397,-0.465777 0.3197,-0.173633 0.67799,-0.173633 0.24529,0 0.452,0.05237 0.2067,0.05237 0.38585,0.157096 l 0.30868,-1.33394 z m -0.92604,1.763888 q -0.18466,-0.09646 -0.3638,-0.14056 -0.17639,-0.04685 -0.37758,-0.04685 -0.28664,0 -0.51263,0.137803 -0.22325,0.137804 -0.3831,0.377582 -0.14607,0.21773 -0.226,0.523655 -0.0772,0.305924 -0.0772,0.592556 0,0.336241 0.14332,0.515385 0.14607,0.176389 0.47129,0.176389 0.23151,0 0.47129,-0.115755 0.24253,-0.115755 0.44648,-0.253559 z" />
      <path
         id="path9274"
         style="font-style:italic;-inkscape-font-specification:'Sans Italic';fill:#9cdb9e;fill-opacity:1;stroke:#39b168;stroke-width:0.265;stroke-miterlimit:4;stroke-dasharray:none;stroke-opacity:1"
         d="m 132.21914,-39.478995 q -0.29214,0 -0.51814,-0.0689 -0.22324,-0.0689 -0.39136,-0.21773 -0.16261,-0.143316 -0.25081,-0.361046 -0.0882,-0.21773 -0.0882,-0.507118 0,-0.432703 0.13505,-0.807529 0.13505,-0.374826 0.38309,-0.658702 0.23978,-0.275608 0.59256,-0.43546 0.35278,-0.162608 0.76068,-0.162608 0.27009,0 0.50711,0.07441 0.23978,0.07441 0.42168,0.176388 l -0.113,0.559484 h -0.0303 q -0.0551,-0.04961 -0.13781,-0.115756 -0.0827,-0.06614 -0.19568,-0.124023 -0.113,-0.06063 -0.2508,-0.09922 -0.13781,-0.04134 -0.31419,-0.04134 -0.53468,0 -0.87368,0.451997 -0.33624,0.451996 -0.33624,1.099673 0,0.388607 0.19844,0.598068 0.20119,0.209462 0.5705,0.209462 0.17364,0 0.34727,-0.04961 0.17363,-0.04961 0.2949,-0.107487 0.13505,-0.06339 0.2508,-0.135048 0.11576,-0.07166 0.16812,-0.107487 h 0.0303 l -0.11024,0.564995 q -0.23978,0.107487 -0.50712,0.187413 -0.26734,0.07717 -0.54295,0.07717 z" />
      <path
         id="path9276"
         style="font-style:italic;-inkscape-font-specification:'Sans Italic';fill:#9cdb9e;fill-opacity:1;stroke:#39b168;stroke-width:0.265;stroke-miterlimit:4;stroke-dasharray:none;stroke-opacity:1"
         d="m 136.54618,-39.547897 h -2.78088 l 0.12954,-0.57602 q 0.3886,-0.283876 0.6587,-0.482313 0.27285,-0.201193 0.65594,-0.507118 0.67249,-0.537434 0.94809,-0.903992 0.27837,-0.369314 0.27837,-0.716579 0,-0.270096 -0.19293,-0.407899 -0.19017,-0.137804 -0.49058,-0.137804 -0.24529,0 -0.56224,0.09371 -0.31419,0.09095 -0.61736,0.264583 h -0.0276 l 0.11024,-0.559483 q 0.21773,-0.09922 0.55673,-0.176389 0.339,-0.07993 0.65043,-0.07993 0.55397,0 0.85439,0.242534 0.30041,0.239779 0.30041,0.650434 0,0.443728 -0.25356,0.840602 -0.25356,0.394119 -0.88746,0.920529 -0.37758,0.311437 -0.77721,0.606337 -0.39687,0.292143 -0.65595,0.4768 h 2.20486 z" />
    </g>
    <g
       style="font-size:5.64444px;line-height:125%;font-family:Sans;letter-spacing:0px;word-spacing:0px;fill:#9cdb9e;fill-opacity:1;stroke:#39b168;stroke-width:0.265;stroke-miterlimit:4;stroke-dasharray:none;stroke-opacity:1"
       id="text3706-1-5-4"
       transform="rotate(-14.307089,244.93887,-93.015286)"
       aria-label="dc1">
      <path
         id="path9279"
         style="font-style:italic;-inkscape-font-specification:'Sans Italic';fill:#9cdb9e;fill-opacity:1;stroke:#39b168;stroke-width:0.265;stroke-miterlimit:4;stroke-dasharray:none;stroke-opacity:1"
         d="m 90.633581,118.76946 -0.992186,4.28845 h -0.518142 l 0.07441,-0.32246 q -0.350022,0.23977 -0.564995,0.32246 -0.212218,0.0854 -0.463021,0.0854 -0.43546,0 -0.691775,-0.27561 -0.253558,-0.27561 -0.253558,-0.80202 0,-0.44373 0.137803,-0.83785 0.137804,-0.39687 0.374826,-0.69453 0.234267,-0.2949 0.553971,-0.46577 0.319705,-0.17364 0.677995,-0.17364 0.24529,0 0.451996,0.0524 0.206705,0.0524 0.38585,0.1571 l 0.308681,-1.33394 z m -0.92604,1.76388 q -0.184657,-0.0965 -0.363802,-0.14056 -0.176389,-0.0469 -0.377582,-0.0469 -0.286632,0 -0.51263,0.1378 -0.223242,0.13781 -0.383095,0.37759 -0.146072,0.21773 -0.225998,0.52365 -0.07717,0.30592 -0.07717,0.59256 0,0.33624 0.143316,0.51538 0.146072,0.17639 0.471289,0.17639 0.23151,0 0.471288,-0.11575 0.242535,-0.11576 0.446485,-0.25356 z" />
      <path
         id="path9281"
         style="font-style:italic;-inkscape-font-specification:'Sans Italic';fill:#9cdb9e;fill-opacity:1;stroke:#39b168;stroke-width:0.265;stroke-miterlimit:4;stroke-dasharray:none;stroke-opacity:1"
         d="m 91.995082,123.12681 q -0.292144,0 -0.518142,-0.0689 -0.223242,-0.0689 -0.391362,-0.21773 -0.162609,-0.14332 -0.250803,-0.36105 -0.08819,-0.21773 -0.08819,-0.50712 0,-0.4327 0.135047,-0.80753 0.135048,-0.37482 0.383095,-0.6587 0.239778,-0.27561 0.592555,-0.43546 0.352778,-0.16261 0.760677,-0.16261 0.270095,0 0.507118,0.0744 0.239778,0.0744 0.421679,0.17639 l -0.112999,0.55948 h -0.03032 q -0.05512,-0.0496 -0.137804,-0.11576 -0.08268,-0.0661 -0.195681,-0.12402 -0.112999,-0.0606 -0.250803,-0.0992 -0.137803,-0.0413 -0.314192,-0.0413 -0.534678,0 -0.873676,0.452 -0.336241,0.45199 -0.336241,1.09967 0,0.38861 0.198438,0.59807 0.201193,0.20946 0.570507,0.20946 0.173633,0 0.347265,-0.0496 0.173633,-0.0496 0.2949,-0.10748 0.135048,-0.0634 0.250803,-0.13505 0.115755,-0.0717 0.168121,-0.10749 h 0.03032 l -0.110242,0.565 q -0.239779,0.10748 -0.507118,0.18741 -0.267339,0.0772 -0.542947,0.0772 z" />
      <path
         id="path9283"
         style="font-style:italic;-inkscape-font-specification:'Sans Italic';fill:#9cdb9e;fill-opacity:1;stroke:#39b168;stroke-width:0.265;stroke-miterlimit:4;stroke-dasharray:none;stroke-opacity:1"
         d="m 96.101633,123.05791 h -2.226908 l 0.09371,-0.39963 h 0.843358 l 0.644922,-2.78915 h -0.854383 l 0.07993,-0.35553 q 0.476801,0 0.738628,-0.1323 0.264583,-0.13504 0.352777,-0.44097 h 0.429948 l -0.857139,3.71795 h 0.848871 z" />
    </g>
    <g
       style="font-size:5.64444px;line-height:125%;font-family:Sans;letter-spacing:0px;word-spacing:0px;fill:#9cdb9e;fill-opacity:1;stroke:#39b168;stroke-width:0.265;stroke-miterlimit:4;stroke-dasharray:none;stroke-opacity:1"
       id="text3706-1-5-4-5"
       transform="rotate(8.8081064,-358.93905,227.36647)"
       aria-label="dx">
      <path
         id="path9291"
         style="font-style:italic;-inkscape-font-specification:'Sans Italic';fill:#9cdb9e;fill-opacity:1;stroke:#39b168;stroke-width:0.265;stroke-miterlimit:4;stroke-dasharray:none;stroke-opacity:1"
         d="m 131.94433,60.03576 -0.99219,4.288451 H 130.434 l 0.0744,-0.322461 q -0.35002,0.239779 -0.56499,0.322461 -0.21222,0.08544 -0.46302,0.08544 -0.43546,0 -0.69178,-0.275607 -0.25356,-0.275607 -0.25356,-0.802018 0,-0.443728 0.13781,-0.837846 0.1378,-0.396875 0.37482,-0.694531 0.23427,-0.2949 0.55397,-0.465776 0.31971,-0.173633 0.678,-0.173633 0.24529,0 0.45199,0.05237 0.20671,0.05237 0.38585,0.157096 l 0.30868,-1.333939 z m -0.92604,1.763887 q -0.18466,-0.09646 -0.36381,-0.14056 -0.17638,-0.04685 -0.37758,-0.04685 -0.28663,0 -0.51263,0.137804 -0.22324,0.137803 -0.38309,0.377582 -0.14607,0.21773 -0.226,0.523654 -0.0772,0.305924 -0.0772,0.592556 0,0.336241 0.14332,0.515386 0.14607,0.176389 0.47128,0.176389 0.23151,0 0.47129,-0.115755 0.24254,-0.115756 0.44649,-0.253559 z" />
      <path
         id="path9293"
         style="font-style:italic;-inkscape-font-specification:'Sans Italic';fill:#9cdb9e;fill-opacity:1;stroke:#39b168;stroke-width:0.265;stroke-miterlimit:4;stroke-dasharray:none;stroke-opacity:1"
         d="m 133.20936,62.767029 -0.85989,-1.521353 h 0.58153 l 0.6339,1.174088 1.14653,-1.174088 h 0.6394 l -1.57371,1.55167 0.86265,1.526865 h -0.58429 l -0.63665,-1.1796 -1.1548,1.1796 h -0.63665 z" />
    </g>
    <g
       style="font-size:5.64444px;line-height:125%;font-family:Sans;letter-spacing:0px;word-spacing:0px;fill:#9cdb9e;fill-opacity:1;stroke:#39b168;stroke-width:0.265;stroke-miterlimit:4;stroke-dasharray:none;stroke-opacity:1"
       id="text3706-1-5-4-5-5"
       transform="rotate(-20.916507,171.43619,-54.019128)"
       aria-label="rd">
      <path
         id="path9286"
         style="font-style:italic;-inkscape-font-specification:'Sans Italic';fill:#9cdb9e;fill-opacity:1;stroke:#39b168;stroke-width:0.265;stroke-miterlimit:4;stroke-dasharray:none;stroke-opacity:1"
         d="m 69.091438,142.52584 h -0.02756 q -0.110243,-0.0276 -0.206706,-0.0386 -0.09371,-0.0138 -0.228754,-0.0138 -0.259071,0 -0.515386,0.11851 -0.253559,0.11576 -0.487825,0.28112 l -0.496093,2.18557 H 66.60546 l 0.702799,-3.07853 h 0.523654 l -0.104731,0.45475 q 0.366558,-0.25632 0.620117,-0.35554 0.256315,-0.0992 0.490581,-0.0992 0.135047,0 0.195681,0.008 0.06063,0.006 0.176389,0.0248 z" />
      <path
         id="path9288"
         style="font-style:italic;-inkscape-font-specification:'Sans Italic';fill:#9cdb9e;fill-opacity:1;stroke:#39b168;stroke-width:0.265;stroke-miterlimit:4;stroke-dasharray:none;stroke-opacity:1"
         d="m 72.503458,140.77022 -0.992187,4.28845 h -0.518142 l 0.07441,-0.32246 q -0.350022,0.23978 -0.564995,0.32246 -0.212218,0.0854 -0.463021,0.0854 -0.43546,0 -0.691774,-0.27561 -0.253559,-0.27561 -0.253559,-0.80202 0,-0.44372 0.137803,-0.83784 0.137804,-0.39688 0.374827,-0.69453 0.234266,-0.2949 0.55397,-0.46578 0.319705,-0.17363 0.677995,-0.17363 0.24529,0 0.451996,0.0524 0.206706,0.0524 0.38585,0.1571 l 0.308681,-1.33394 z m -0.926041,1.76389 q -0.184657,-0.0965 -0.363802,-0.14056 -0.176389,-0.0469 -0.377582,-0.0469 -0.286632,0 -0.51263,0.13781 -0.223242,0.1378 -0.383094,0.37758 -0.146072,0.21773 -0.225999,0.52365 -0.07717,0.30593 -0.07717,0.59256 0,0.33624 0.143316,0.51538 0.146072,0.17639 0.471289,0.17639 0.23151,0 0.471289,-0.11575 0.242534,-0.11576 0.446484,-0.25356 z" />
    </g>
    <path
       sodipodi:nodetypes="ccccccc"
       id="path66"
       d="M 166.1113,7.3283102 125.47649,18.145418 97.103135,36.430203 89.369357,61.887811 114.15902,66.703917 148.73198,48.815192 185.51786,36.487593"
       style="fill:none;stroke:#000000;stroke-width:0.265;stroke-linecap:butt;stroke-linejoin:miter;stroke-miterlimit:4;stroke-dasharray:none;stroke-opacity:1;marker-start:url(#marker994);marker-mid:url(#marker994);marker-end:url(#marker994)" />
    <path
       sodipodi:nodetypes="csc"
       id="path72"
       d="M 76.393738,74.664689 C 75.919414,73.71117 95.083183,52.406963 131.46082,36.489009 155.18815,26.106519 175.17946,20.674334 197.41278,15.075111"
       style="fill:none;stroke:#000000;stroke-width:0.265;stroke-linecap:butt;stroke-linejoin:miter;stroke-miterlimit:4;stroke-dasharray:1.59, 1.59;stroke-dashoffset:0;stroke-opacity:1" />
    <circle
       r="17.185261"
       cy="52.495121"
       cx="104.17426"
       style="opacity:0.451;fill:#e4e4e4;fill-opacity:0.356;stroke:#ff5d00;stroke-width:0.655;stroke-miterlimit:4;stroke-dasharray:none"
       id="path1315-9" />
    <circle
       style="opacity:0.451;fill:#e4e4e4;fill-opacity:0.356;stroke:#ff5d00;stroke-width:0.655;stroke-miterlimit:4;stroke-dasharray:none"
       id="path1315-4"
       cx="173.45834"
       cy="90.143837"
       r="17.185261" />
    <path
       style="fill:none;fill-rule:evenodd;stroke:#000000;stroke-width:0.264583px;stroke-linecap:butt;stroke-linejoin:miter;stroke-opacity:1;marker-start:url(#Arrow1Lstart-1);marker-mid:url(#DotM-3);marker-end:url(#Arrow1Lend-4)"
       d="m 97.535877,38.065006 3.593483,15.118884 11.92376,12.269883"
       id="path1658-6"
       sodipodi:nodetypes="ccc" />
    <text
       xml:space="preserve"
       style="font-style:normal;font-weight:normal;font-size:5.64444px;line-height:125%;font-family:Sans;letter-spacing:0px;word-spacing:0px;fill:#000000;fill-opacity:1;stroke:none;stroke-width:0.264583px;stroke-linecap:butt;stroke-linejoin:miter;stroke-opacity:1"
       x="88.00267"
       y="34.583828"
       id="text3706-0"><tspan
         sodipodi:role="line"
         id="tspan3704-1"
         style="font-style:italic;font-variant:normal;font-weight:normal;font-stretch:normal;font-size:5.64444px;font-family:Sans;-inkscape-font-specification:'Sans Italic';stroke-width:0.264583px"
         x="88.00267"
         y="34.583828">p1</tspan></text>
    <text
       xml:space="preserve"
       style="font-style:normal;font-weight:normal;font-size:5.64444px;line-height:125%;font-family:Sans;letter-spacing:0px;word-spacing:0px;fill:#000000;fill-opacity:1;stroke:none;stroke-width:0.264583px;stroke-linecap:butt;stroke-linejoin:miter;stroke-opacity:1"
       x="113.19944"
       y="73.283752"
       id="text3706-1-74"><tspan
         sodipodi:role="line"
         id="tspan3704-3-29"
         style="font-style:italic;font-variant:normal;font-weight:normal;font-stretch:normal;font-size:5.64444px;font-family:Sans;-inkscape-font-specification:'Sans Italic';stroke-width:0.264583px"
         x="113.19944"
         y="73.283752">p2</tspan></text>
    <text
       xml:space="preserve"
       style="font-style:normal;font-weight:normal;font-size:5.64444px;line-height:125%;font-family:Sans;letter-spacing:0px;word-spacing:0px;fill:#000000;fill-opacity:1;stroke:none;stroke-width:0.264583px;stroke-linecap:butt;stroke-linejoin:miter;stroke-opacity:1"
       x="93.479866"
       y="53.873646"
       id="text3706-1-7-9"><tspan
         sodipodi:role="line"
         id="tspan3704-3-2-7"
         style="font-style:italic;font-variant:normal;font-weight:normal;font-stretch:normal;font-size:5.64444px;font-family:Sans;-inkscape-font-specification:'Sans Italic';stroke-width:0.264583px"
         x="93.479866"
         y="53.873646">xc</tspan></text>
    <path
       sodipodi:nodetypes="ccc"
       style="fill:none;fill-rule:evenodd;stroke:#dd0015;stroke-width:0.264583px;stroke-linecap:butt;stroke-linejoin:miter;stroke-opacity:1"
       d="m 101.20734,17.72107 -0.078,35.46282 65.83741,-0.149615"
       id="path10943-1" />
    <circle
       style="opacity:0.451;fill:#e4e4e4;fill-opacity:0.356;stroke:#000edd;stroke-width:0.264999;stroke-miterlimit:4;stroke-dasharray:none;stroke-dashoffset:0;stroke-opacity:1;marker-start:url(#Arrow1Mstart-4);marker-end:url(#Arrow1Mend-48)"
       id="path11798-9"
       sodipodi:type="arc"
       sodipodi:cx="101.12936"
       sodipodi:cy="53.183891"
       sodipodi:rx="9.9543562"
       sodipodi:ry="9.9543562"
       sodipodi:start="4.5375695"
       sodipodi:end="6.230796"
       sodipodi:arc-type="arc"
       d="m 99.397992,43.38126 a 9.9543562,9.9543562 0 0 1 7.926868,2.011292 9.9543562,9.9543562 0 0 1 3.7452,7.270076"
       sodipodi:open="true" />
    <text
       xml:space="preserve"
       style="font-style:normal;font-weight:normal;font-size:5.46116px;line-height:125%;font-family:Sans;letter-spacing:0px;word-spacing:0px;fill:#000000;fill-opacity:1;stroke:none;stroke-width:0.13653px;stroke-linecap:butt;stroke-linejoin:miter;stroke-opacity:1"
       x="107.29052"
       y="44.896416"
       id="text13602-0"><tspan
         sodipodi:role="line"
         id="tspan13600-8"
         style="font-style:italic;font-variant:normal;font-weight:normal;font-stretch:normal;font-family:Symbol;-inkscape-font-specification:Symbol;stroke-width:0.13653px"
         x="107.29052"
         y="44.896416">a</tspan></text>
    <circle
       sodipodi:open="true"
       style="opacity:0.451;fill:#e4e4e4;fill-opacity:0.356;stroke:#000edd;stroke-width:0.264999;stroke-miterlimit:4;stroke-dasharray:none;stroke-dashoffset:0;stroke-opacity:1;marker-start:url(#Arrow1Mstart-9-3);marker-end:url(#Arrow1Mend-4-6)"
       id="path11798-1-7"
       sodipodi:type="arc"
       sodipodi:cx="112.41703"
       sodipodi:cy="11.838424"
       sodipodi:rx="11.654327"
       sodipodi:ry="11.654327"
       sodipodi:start="6.016773"
       sodipodi:end="0.33306681"
       sodipodi:arc-type="arc"
       d="m 123.66021,8.7701655 a 11.654327,11.654327 0 0 1 -0.22933,6.8785575"
       transform="rotate(21.740731)" />
    <text
       xml:space="preserve"
       style="font-style:normal;font-weight:normal;font-size:4.3929px;line-height:125%;font-family:Sans;letter-spacing:0px;word-spacing:0px;fill:#000000;fill-opacity:1;stroke:none;stroke-width:0.109823px;stroke-linecap:butt;stroke-linejoin:miter;stroke-opacity:1"
       x="112.4931"
       y="58.801487"
       id="text13602-6-2"><tspan
         sodipodi:role="line"
         id="tspan13600-9-9"
         style="font-style:italic;font-variant:normal;font-weight:normal;font-stretch:normal;font-family:Symbol;-inkscape-font-specification:Symbol;stroke-width:0.109823px"
         x="112.4931"
         y="58.801487">b</tspan></text>
    <g
       aria-label="dc2"
       transform="rotate(57.336294,40.871455,52.539826)"
       id="text3706-1-5-3"
       style="font-size:5.64444px;line-height:125%;font-family:Sans;letter-spacing:0px;word-spacing:0px;fill:#9cdb9e;fill-opacity:1;stroke:#39b168;stroke-width:0.265;stroke-miterlimit:4;stroke-dasharray:none;stroke-opacity:1">
      <path
         d="m 130.85764,-43.836349 -0.99219,4.288452 h -0.51814 l 0.0744,-0.322461 q -0.35002,0.239778 -0.565,0.322461 -0.21222,0.08544 -0.46302,0.08544 -0.43546,0 -0.69177,-0.275607 -0.25356,-0.275608 -0.25356,-0.802018 0,-0.443728 0.1378,-0.837847 0.13781,-0.396874 0.37483,-0.69453 0.23426,-0.2949 0.55397,-0.465777 0.3197,-0.173633 0.67799,-0.173633 0.24529,0 0.452,0.05237 0.2067,0.05237 0.38585,0.157096 l 0.30868,-1.33394 z m -0.92604,1.763888 q -0.18466,-0.09646 -0.3638,-0.14056 -0.17639,-0.04685 -0.37758,-0.04685 -0.28664,0 -0.51263,0.137803 -0.22325,0.137804 -0.3831,0.377582 -0.14607,0.21773 -0.226,0.523655 -0.0772,0.305924 -0.0772,0.592556 0,0.336241 0.14332,0.515385 0.14607,0.176389 0.47129,0.176389 0.23151,0 0.47129,-0.115755 0.24253,-0.115755 0.44648,-0.253559 z"
         style="font-style:italic;-inkscape-font-specification:'Sans Italic';fill:#9cdb9e;fill-opacity:1;stroke:#39b168;stroke-width:0.265;stroke-miterlimit:4;stroke-dasharray:none;stroke-opacity:1"
         id="path9272-9" />
      <path
         d="m 132.21914,-39.478995 q -0.29214,0 -0.51814,-0.0689 -0.22324,-0.0689 -0.39136,-0.21773 -0.16261,-0.143316 -0.25081,-0.361046 -0.0882,-0.21773 -0.0882,-0.507118 0,-0.432703 0.13505,-0.807529 0.13505,-0.374826 0.38309,-0.658702 0.23978,-0.275608 0.59256,-0.43546 0.35278,-0.162608 0.76068,-0.162608 0.27009,0 0.50711,0.07441 0.23978,0.07441 0.42168,0.176388 l -0.113,0.559484 h -0.0303 q -0.0551,-0.04961 -0.13781,-0.115756 -0.0827,-0.06614 -0.19568,-0.124023 -0.113,-0.06063 -0.2508,-0.09922 -0.13781,-0.04134 -0.31419,-0.04134 -0.53468,0 -0.87368,0.451997 -0.33624,0.451996 -0.33624,1.099673 0,0.388607 0.19844,0.598068 0.20119,0.209462 0.5705,0.209462 0.17364,0 0.34727,-0.04961 0.17363,-0.04961 0.2949,-0.107487 0.13505,-0.06339 0.2508,-0.135048 0.11576,-0.07166 0.16812,-0.107487 h 0.0303 l -0.11024,0.564995 q -0.23978,0.107487 -0.50712,0.187413 -0.26734,0.07717 -0.54295,0.07717 z"
         style="font-style:italic;-inkscape-font-specification:'Sans Italic';fill:#9cdb9e;fill-opacity:1;stroke:#39b168;stroke-width:0.265;stroke-miterlimit:4;stroke-dasharray:none;stroke-opacity:1"
         id="path9274-4" />
      <path
         d="m 136.54618,-39.547897 h -2.78088 l 0.12954,-0.57602 q 0.3886,-0.283876 0.6587,-0.482313 0.27285,-0.201193 0.65594,-0.507118 0.67249,-0.537434 0.94809,-0.903992 0.27837,-0.369314 0.27837,-0.716579 0,-0.270096 -0.19293,-0.407899 -0.19017,-0.137804 -0.49058,-0.137804 -0.24529,0 -0.56224,0.09371 -0.31419,0.09095 -0.61736,0.264583 h -0.0276 l 0.11024,-0.559483 q 0.21773,-0.09922 0.55673,-0.176389 0.339,-0.07993 0.65043,-0.07993 0.55397,0 0.85439,0.242534 0.30041,0.239779 0.30041,0.650434 0,0.443728 -0.25356,0.840602 -0.25356,0.394119 -0.88746,0.920529 -0.37758,0.311437 -0.77721,0.606337 -0.39687,0.292143 -0.65595,0.4768 h 2.20486 z"
         style="font-style:italic;-inkscape-font-specification:'Sans Italic';fill:#9cdb9e;fill-opacity:1;stroke:#39b168;stroke-width:0.265;stroke-miterlimit:4;stroke-dasharray:none;stroke-opacity:1"
         id="path9276-6" />
    </g>
    <g
       aria-label="dc1"
       transform="rotate(-14.307089,-9.2095813,-256.27048)"
       id="text3706-1-5-4-0"
       style="font-size:5.64444px;line-height:125%;font-family:Sans;letter-spacing:0px;word-spacing:0px;fill:#9cdb9e;fill-opacity:1;stroke:#39b168;stroke-width:0.265;stroke-miterlimit:4;stroke-dasharray:none;stroke-opacity:1">
      <path
         d="m 90.633581,118.76946 -0.992186,4.28845 h -0.518142 l 0.07441,-0.32246 q -0.350022,0.23977 -0.564995,0.32246 -0.212218,0.0854 -0.463021,0.0854 -0.43546,0 -0.691775,-0.27561 -0.253558,-0.27561 -0.253558,-0.80202 0,-0.44373 0.137803,-0.83785 0.137804,-0.39687 0.374826,-0.69453 0.234267,-0.2949 0.553971,-0.46577 0.319705,-0.17364 0.677995,-0.17364 0.24529,0 0.451996,0.0524 0.206705,0.0524 0.38585,0.1571 l 0.308681,-1.33394 z m -0.92604,1.76388 q -0.184657,-0.0965 -0.363802,-0.14056 -0.176389,-0.0469 -0.377582,-0.0469 -0.286632,0 -0.51263,0.1378 -0.223242,0.13781 -0.383095,0.37759 -0.146072,0.21773 -0.225998,0.52365 -0.07717,0.30592 -0.07717,0.59256 0,0.33624 0.143316,0.51538 0.146072,0.17639 0.471289,0.17639 0.23151,0 0.471288,-0.11575 0.242535,-0.11576 0.446485,-0.25356 z"
         style="font-style:italic;-inkscape-font-specification:'Sans Italic';fill:#9cdb9e;fill-opacity:1;stroke:#39b168;stroke-width:0.265;stroke-miterlimit:4;stroke-dasharray:none;stroke-opacity:1"
         id="path9279-5" />
      <path
         d="m 91.995082,123.12681 q -0.292144,0 -0.518142,-0.0689 -0.223242,-0.0689 -0.391362,-0.21773 -0.162609,-0.14332 -0.250803,-0.36105 -0.08819,-0.21773 -0.08819,-0.50712 0,-0.4327 0.135047,-0.80753 0.135048,-0.37482 0.383095,-0.6587 0.239778,-0.27561 0.592555,-0.43546 0.352778,-0.16261 0.760677,-0.16261 0.270095,0 0.507118,0.0744 0.239778,0.0744 0.421679,0.17639 l -0.112999,0.55948 h -0.03032 q -0.05512,-0.0496 -0.137804,-0.11576 -0.08268,-0.0661 -0.195681,-0.12402 -0.112999,-0.0606 -0.250803,-0.0992 -0.137803,-0.0413 -0.314192,-0.0413 -0.534678,0 -0.873676,0.452 -0.336241,0.45199 -0.336241,1.09967 0,0.38861 0.198438,0.59807 0.201193,0.20946 0.570507,0.20946 0.173633,0 0.347265,-0.0496 0.173633,-0.0496 0.2949,-0.10748 0.135048,-0.0634 0.250803,-0.13505 0.115755,-0.0717 0.168121,-0.10749 h 0.03032 l -0.110242,0.565 q -0.239779,0.10748 -0.507118,0.18741 -0.267339,0.0772 -0.542947,0.0772 z"
         style="font-style:italic;-inkscape-font-specification:'Sans Italic';fill:#9cdb9e;fill-opacity:1;stroke:#39b168;stroke-width:0.265;stroke-miterlimit:4;stroke-dasharray:none;stroke-opacity:1"
         id="path9281-1" />
      <path
         d="m 96.101633,123.05791 h -2.226908 l 0.09371,-0.39963 h 0.843358 l 0.644922,-2.78915 h -0.854383 l 0.07993,-0.35553 q 0.476801,0 0.738628,-0.1323 0.264583,-0.13504 0.352777,-0.44097 h 0.429948 l -0.857139,3.71795 h 0.848871 z"
         style="font-style:italic;-inkscape-font-specification:'Sans Italic';fill:#9cdb9e;fill-opacity:1;stroke:#39b168;stroke-width:0.265;stroke-miterlimit:4;stroke-dasharray:none;stroke-opacity:1"
         id="path9283-9" />
    </g>
    <g
       aria-label="dx"
       transform="rotate(8.8081062,97.897137,404.17214)"
       id="text3706-1-5-4-5-2"
       style="font-size:5.64444px;line-height:125%;font-family:Sans;letter-spacing:0px;word-spacing:0px;fill:#9cdb9e;fill-opacity:1;stroke:#39b168;stroke-width:0.265;stroke-miterlimit:4;stroke-dasharray:none;stroke-opacity:1">
      <path
         d="m 131.94433,60.03576 -0.99219,4.288451 H 130.434 l 0.0744,-0.322461 q -0.35002,0.239779 -0.56499,0.322461 -0.21222,0.08544 -0.46302,0.08544 -0.43546,0 -0.69178,-0.275607 -0.25356,-0.275607 -0.25356,-0.802018 0,-0.443728 0.13781,-0.837846 0.1378,-0.396875 0.37482,-0.694531 0.23427,-0.2949 0.55397,-0.465776 0.31971,-0.173633 0.678,-0.173633 0.24529,0 0.45199,0.05237 0.20671,0.05237 0.38585,0.157096 l 0.30868,-1.333939 z m -0.92604,1.763887 q -0.18466,-0.09646 -0.36381,-0.14056 -0.17638,-0.04685 -0.37758,-0.04685 -0.28663,0 -0.51263,0.137804 -0.22324,0.137803 -0.38309,0.377582 -0.14607,0.21773 -0.226,0.523654 -0.0772,0.305924 -0.0772,0.592556 0,0.336241 0.14332,0.515386 0.14607,0.176389 0.47128,0.176389 0.23151,0 0.47129,-0.115755 0.24254,-0.115756 0.44649,-0.253559 z"
         style="font-style:italic;-inkscape-font-specification:'Sans Italic';fill:#9cdb9e;fill-opacity:1;stroke:#39b168;stroke-width:0.265;stroke-miterlimit:4;stroke-dasharray:none;stroke-opacity:1"
         id="path9291-0" />
      <path
         d="m 133.20936,62.767029 -0.85989,-1.521353 h 0.58153 l 0.6339,1.174088 1.14653,-1.174088 h 0.6394 l -1.57371,1.55167 0.86265,1.526865 h -0.58429 l -0.63665,-1.1796 -1.1548,1.1796 h -0.63665 z"
         style="font-style:italic;-inkscape-font-specification:'Sans Italic';fill:#9cdb9e;fill-opacity:1;stroke:#39b168;stroke-width:0.265;stroke-miterlimit:4;stroke-dasharray:none;stroke-opacity:1"
         id="path9293-5" />
    </g>
    <g
       aria-label="rd"
       transform="rotate(47.539,180.38768,140.26144)"
       id="text3706-1-5-4-5-5-1"
       style="font-size:5.64444px;line-height:125%;font-family:Sans;letter-spacing:0px;word-spacing:0px;fill:#9cdb9e;fill-opacity:1;stroke:#39b168;stroke-width:0.265;stroke-miterlimit:4;stroke-dasharray:none;stroke-opacity:1">
      <path
         d="m 69.091438,142.52584 h -0.02756 q -0.110243,-0.0276 -0.206706,-0.0386 -0.09371,-0.0138 -0.228754,-0.0138 -0.259071,0 -0.515386,0.11851 -0.253559,0.11576 -0.487825,0.28112 l -0.496093,2.18557 H 66.60546 l 0.702799,-3.07853 h 0.523654 l -0.104731,0.45475 q 0.366558,-0.25632 0.620117,-0.35554 0.256315,-0.0992 0.490581,-0.0992 0.135047,0 0.195681,0.008 0.06063,0.006 0.176389,0.0248 z"
         style="font-style:italic;-inkscape-font-specification:'Sans Italic';fill:#9cdb9e;fill-opacity:1;stroke:#39b168;stroke-width:0.265;stroke-miterlimit:4;stroke-dasharray:none;stroke-opacity:1"
         id="path9286-7" />
      <path
         d="m 72.503458,140.77022 -0.992187,4.28845 h -0.518142 l 0.07441,-0.32246 q -0.350022,0.23978 -0.564995,0.32246 -0.212218,0.0854 -0.463021,0.0854 -0.43546,0 -0.691774,-0.27561 -0.253559,-0.27561 -0.253559,-0.80202 0,-0.44372 0.137803,-0.83784 0.137804,-0.39688 0.374827,-0.69453 0.234266,-0.2949 0.55397,-0.46578 0.319705,-0.17363 0.677995,-0.17363 0.24529,0 0.451996,0.0524 0.206706,0.0524 0.38585,0.1571 l 0.308681,-1.33394 z m -0.926041,1.76389 q -0.184657,-0.0965 -0.363802,-0.14056 -0.176389,-0.0469 -0.377582,-0.0469 -0.286632,0 -0.51263,0.13781 -0.223242,0.1378 -0.383094,0.37758 -0.146072,0.21773 -0.225999,0.52365 -0.07717,0.30593 -0.07717,0.59256 0,0.33624 0.143316,0.51538 0.146072,0.17639 0.471289,0.17639 0.23151,0 0.471289,-0.11575 0.242534,-0.11576 0.446484,-0.25356 z"
         style="font-style:italic;-inkscape-font-specification:'Sans Italic';fill:#9cdb9e;fill-opacity:1;stroke:#39b168;stroke-width:0.265;stroke-miterlimit:4;stroke-dasharray:none;stroke-opacity:1"
         id="path9288-3" />
    </g>
  </g>
</svg>
